Coordinates
version=1
nRows=28
nColumns=23
inDegrees=yes

Units are S.I. units (second, meters, Newtons, ...)
If the header above contains a line with 'inDegrees', this indicates whether rotational values are in degrees (yes) or radians (no).

endheader
time	pelvis_tilt	pelvis_list	pelvis_rotation	pelvis_tx	pelvis_ty	pelvis_tz	hip_flexion_r	hip_adduction_r	hip_rotation_r	knee_angle_r	knee_angle_r_beta	ankle_angle_r	subtalar_angle_r	mtp_angle_r	hip_flexion_l	hip_adduction_l	hip_rotation_l	knee_angle_l	knee_angle_l_beta	ankle_angle_l	subtalar_angle_l	mtp_angle_l
      7.50000000	    -12.40229924	      1.56116623	     -0.32563279	      2.23793078	      0.95624506	      1.00014377	     -8.09740558	     -1.35116044	     -6.85339387	     33.97600680	      0.59299319	     -9.41893593	    -10.31134910	      0.00000000	     32.58241090	      3.80306545	     -4.01268576	     17.62551562	      0.30762328	      5.44220248	     -1.23439000	      0.00000000
      7.50666667	    -12.05609981	      1.36429933	     -0.37468040	      2.23872303	      0.95453000	      0.99947020	     -8.00053719	     -1.36615010	     -6.61556124	     37.43334474	      0.65333512	     -9.11295265	    -11.22427608	      0.00000000	     31.54903687	      3.79295630	     -3.83603297	     14.92769582	      0.26053744	      5.79429139	      0.12775917	      0.00000000
      7.51333333	    -11.60593547	      1.26529326	     -0.44926553	      2.23951532	      0.95247755	      0.99889637	     -7.93335867	     -1.45865587	     -6.27481837	     41.02604789	      0.71603961	     -8.86100222	    -12.10025063	      0.00000000	     30.45071304	      3.85036020	     -3.62673704	     12.66956999	      0.22112571	      5.98791340	      1.04674172	      0.00000000
      7.52000000	    -11.03850951	      1.21208258	     -0.46966629	      2.24032314	      0.95022668	      0.99835798	     -7.95533600	     -1.58056242	     -6.00239986	     44.63005075	      0.77894133	     -8.63985170	    -12.95876408	      0.00000000	     29.24854479	      3.98065323	     -3.15717302	     10.81683901	      0.18878946	      5.96935817	      1.18710147	      0.00000000
      7.52666667	    -10.61598224	      1.22847280	     -0.40260279	      2.24090958	      0.94720110	      0.99782550	     -7.71980345	     -1.67359708	     -5.61228343	     48.40874420	      0.84489197	     -8.49317791	    -13.95689014	      0.00000000	     28.57866338	      4.11924462	     -3.03231168	     10.06289986	      0.17563073	      6.19577537	      1.56885943	      0.00000000
      7.53333333	    -10.11142941	      1.33381517	     -0.40028770	      2.24147577	      0.94398495	      0.99746869	     -7.50161542	     -1.84897020	     -5.18021487	     52.23037905	      0.91159208	     -8.39033495	    -14.82171579	      0.00000000	     27.83702560	      4.29331645	     -3.02926486	      9.67815513	      0.16891567	      6.03358124	      1.46792841	      0.00000000
      7.54000000	     -9.51266447	      1.51998331	     -0.28546043	      2.24205079	      0.94044331	      0.99706188	     -7.37862696	     -2.07485237	     -4.87932802	     56.02343851	      0.97779346	     -8.29056787	    -15.60895289	      0.00000000	     27.16983789	      4.56696456	     -3.04217689	      9.99513610	      0.17444803	      5.88530699	      1.03987394	      0.00000000
      7.54666667	     -8.81964690	      1.80084411	     -0.11220148	      2.24251885	      0.93662844	      0.99666958	     -7.31882753	     -2.38736611	     -4.66553051	     59.82610005	      1.04416242	     -8.17206989	    -16.33805229	      0.00000000	     26.54300478	      4.93034142	     -3.15482290	     10.88220892	      0.18993038	      5.54995809	      0.32066549	      0.00000000
      7.55333333	     -8.38697293	      2.12001836	     -0.00696172	      2.24279629	      0.93214975	      0.99638859	     -6.86411438	     -2.72656732	     -4.36051979	     63.72686272	      1.11224358	     -8.02197666	    -16.72424777	      0.00000000	     26.35728206	      5.28876332	     -3.27379600	     12.37147278	      0.21592293	      5.14349730	     -0.95654488	      0.00000000
      7.56000000	     -8.11719780	      2.39575193	      0.26444917	      2.24285712	      0.92702320	      0.99588400	     -6.20156666	     -3.02510626	     -4.25078930	     67.62800411	      1.18033134	     -7.73209066	    -16.90002673	      0.00000000	     26.60099890	      5.66207713	     -3.26813084	     14.60147873	      0.25484388	      4.75795243	     -2.53905839	      0.00000000
      7.56666667	     -7.76724638	      2.73186956	      0.55544299	      2.24286112	      0.92162282	      0.99541397	     -5.60582379	     -3.38247986	     -4.16539656	     71.46228375	      1.24725214	     -7.48331487	    -17.01671613	      0.00000000	     26.89871229	      6.07945693	     -3.36666105	     17.34570219	      0.30273961	      4.55896253	     -4.11815090	      0.00000000
      7.57333333	     -7.48441066	      3.05506606	      0.87199886	      2.24269992	      0.91582001	      0.99491764	     -4.89021811	     -3.75421174	     -4.13018952	     75.25670883	      1.31347735	     -7.21629883	    -17.02750529	      0.00000000	     27.40538017	      6.47944226	     -3.49455623	     20.54586082	      0.35859292	      4.69593409	     -5.62406357	      0.00000000
      7.58000000	     -7.26989302	      3.33431436	      1.22050385	      2.24235405	      0.90965682	      0.99439810	     -4.04559774	     -4.09593491	     -4.12582201	     79.00157985	      1.37883768	     -6.89497623	    -16.90965047	      0.00000000	     28.07953857	      6.84932576	     -3.55844332	     24.08754631	      0.42040699	      5.25929668	     -6.99941333	      0.00000000
      7.58666667	     -7.09860646	      3.57663852	      1.60986986	      2.24181634	      0.90328969	      0.99383204	     -3.09882453	     -4.42881732	     -4.16988499	     82.66950200	      1.44285500	     -6.54398521	    -16.66992197	      0.00000000	     28.80614049	      7.22201840	     -3.50913352	     27.75607632	      0.48443492	      6.26615457	     -8.19152890	      0.00000000
      7.59333333	     -6.97745682	      3.80051495	      1.99082713	      2.24111920	      0.89681031	      0.99332614	     -2.02824280	     -4.75398896	     -4.18524642	     86.25106808	      1.50536512	     -6.18217281	    -16.39847948	      0.00000000	     29.54480895	      7.56898546	     -3.46408959	     31.44116425	      0.54875184	      7.73271534	     -8.96753723	      0.00000000
      7.60000000	     -6.88342396	      3.99990694	      2.39963656	      2.24024751	      0.89040114	      0.99280408	     -0.85402012	     -5.08721713	     -4.22617407	     89.72173025	      1.56593960	     -5.77513892	    -15.99541367	      0.00000000	     30.18082712	      7.93716774	     -3.28568651	     34.93561123	      0.60974144	      9.49612024	     -9.57406322	      0.00000000
      7.60666667	     -6.77850248	      4.18269454	      2.84029725	      2.23921333	      0.88426043	      0.99227722	      0.38186807	     -5.42089296	     -4.28063877	     93.04006618	      1.62385549	     -5.35144661	    -15.50537341	      0.00000000	     30.62492259	      8.32839656	     -2.99212338	     38.13404336	      0.66556461	     11.45194801	     -9.98218462	      0.00000000
      7.61333333	     -6.72491387	      4.34897909	      3.23150238	      2.23803217	      0.87841466	      0.99188342	      1.78962848	     -5.75008831	     -4.25761827	     96.22300781	      1.67940830	     -4.90689325	    -14.99053018	      0.00000000	     30.91918703	      8.65630174	     -2.75433472	     40.99060337	      0.71542099	     13.57105226	    -10.04177245	      0.00000000
      7.62000000	     -6.67030802	      4.49542533	      3.60907801	      2.23671341	      0.87304483	      0.99152180	      3.29793211	     -6.06810402	     -4.19588785	     99.22620780	      1.73182403	     -4.47016532	    -14.42811564	      0.00000000	     30.97824461	      8.95533257	     -2.49555114	     43.43861418	      0.75814684	     15.67603271	     -9.91296392	      0.00000000
      7.62666667	     -6.66266388	      4.62297303	      3.95147409	      2.23525976	      0.86813416	      0.99127932	      4.98251956	     -6.36338880	     -4.06277782	    102.04216605	      1.78097177	     -4.02672910	    -13.78861220	      0.00000000	     30.89189366	      9.17178200	     -2.32401454	     45.54894451	      0.79497905	     17.71394117	     -9.58730875	      0.00000000
      7.63333333	     -6.69066454	      4.71163314	      4.25335378	      2.23368363	      0.86396405	      0.99107592	      6.84423499	     -6.63343800	     -3.86072142	    104.63181196	      1.82616962	     -3.58870654	    -13.09434132	      0.00000000	     30.55922382	      9.36698628	     -2.02959354	     47.13498455	      0.82266067	     19.68651424	     -9.21460771	      0.00000000
      7.64000000	     -6.76575952	      4.78197633	      4.46654049	      2.23204550	      0.86037492	      0.99100682	      8.88663263	     -6.86760302	     -3.54587420	    106.99065868	      1.86733926	     -3.17603961	    -12.34148555	      0.00000000	     30.08830611	      9.45205162	     -1.88278336	     48.38191214	      0.84442367	     21.47695297	     -8.71622286	      0.00000000
      7.64666667	     -6.41480418	      4.86458618	      4.58515305	      2.23053345	      0.85817180	      0.99102231	     10.50234045	     -7.02645240	     -3.14493904	    108.92613018	      1.90111961	     -3.14203697	    -12.07854100	      0.00000000	     28.87064943	      9.55135278	     -1.59077320	     49.10449884	      0.85703518	     22.79686878	     -8.69342216	      0.00000000
      7.65333333	     -6.97009350	      4.82188579	      4.63613870	      2.22879951	      0.85541928	      0.99121130	     13.37050385	     -7.13393584	     -2.64059060	    110.84284699	      1.93457263	     -2.48324656	    -10.65976218	      0.00000000	     28.61304384	      9.32019061	     -1.81945706	     49.77425621	      0.86872465	     24.54871549	     -7.48982029	      0.00000000
      7.66000000	     -7.04079479	      4.80975569	      4.61680356	      2.22730382	      0.85407049	      0.99144731	     15.67645152	     -7.17106448	     -2.11084799	    112.27795530	      1.95962000	     -2.23030956	     -9.80685037	      0.00000000	     27.56777905	      9.14246629	     -1.87299299	     49.95651227	      0.87190562	     25.75348176	     -6.72333687	      0.00000000
      7.66666667	     -7.08488953	      4.81630829	      4.52354487	      2.22605062	      0.85356921	      0.99171465	     17.97189231	     -7.22106066	     -1.56349220	    113.34073936	      1.97816908	     -2.00300952	     -8.91654540	      0.00000000	     26.28610339	      8.93856007	     -2.00455763	     49.75955344	      0.86846804	     26.72804701	     -6.07632841	      0.00000000
      7.67333333	     -6.95708703	      4.62596544	      4.56870583	      2.22501534	      0.85415270	      0.99185268	     19.98022618	     -7.00262652	     -1.27693000	    113.88666081	      1.98769721	     -2.04543615	     -8.51842390	      0.00000000	     24.64763933	      8.67927327	     -1.68374145	     49.22331452	      0.85910891	     27.32186123	     -5.79182248	      0.00000000
      7.68000000	     -7.05690013	      4.74729399	      4.23564403	      2.22418812	      0.85487857	      0.99234631	     22.35042895	     -7.14222911	     -0.58413409	    114.29943621	      1.99490150	     -1.72026666	     -7.18480205	      0.00000000	     23.11343571	      8.44273048	     -2.18417377	     48.41044010	      0.84492157	     27.85480032	     -4.87367111	      0.00000000
